<svg width="512" height="512" viewBox="0 0 512 512" fill="none" xmlns="http://www.w3.org/2000/svg" role="img" aria-label="CarGo app icon">
  
  <rect width="512" height="512" rx="112" fill="#0A1430"></rect>
  
  <g transform="translate(105.2, 84.4) scale(5.2)">
    
    <rect x="2" y="21" width="12" height="3" rx="1.5" fill="#FF6A1A"></rect>
    <rect x="0" y="29" width="9" height="3" rx="1.5" fill="#FF6A1A" opacity="0.7"></rect>
    <rect x="3" y="37" width="14" height="3" rx="1.5" fill="#FF6A1A" opacity="0.85"></rect>
    
    <rect x="19" y="22" width="11" height="10" rx="1" fill="#FF6A1A"></rect>
    <rect x="30" y="18" width="12" height="14" rx="1" fill="#2563EB"></rect>
    <path d="M19 27h11M36 18v14M30 25h12" stroke="#000000" stroke-opacity="0.18" stroke-width="1.2"></path>
    
    <path d="M44 22h6l8 9v9H44V22z" fill="#FFFFFF"></path>
    <rect x="47" y="25" width="7" height="6" rx="1" fill="#0A1430"></rect>
    
    <rect x="14" y="36" width="44" height="4" rx="1" fill="#FFFFFF"></rect>
    
    <circle cx="26" cy="44" r="4.6" fill="#FFFFFF"></circle>
    <circle cx="26" cy="44" r="1.8" fill="#0A1430"></circle>
    <circle cx="50" cy="44" r="4.6" fill="#FFFFFF"></circle>
    <circle cx="50" cy="44" r="1.8" fill="#0A1430"></circle>
  </g>
</svg>